<?xml version="1.0" standalone="no"?><!DOCTYPE svg PUBLIC "-//W3C//DTD SVG 1.1//EN" "http://www.w3.org/Graphics/SVG/1.1/DTD/svg11.dtd"><svg t="1560568882739" class="icon" style="" viewBox="0 0 1024 1024" version="1.1" xmlns="http://www.w3.org/2000/svg" p-id="3214" xmlns:xlink="http://www.w3.org/1999/xlink" width="200" height="200"><defs><style type="text/css"></style></defs><path d="M999.905882 24.094118v975.811764H24.094118V24.094118h975.811764M1024 0H0v1024h1024V0z" fill="#FF1A1A" p-id="3215"></path><path d="M519.529412 986.352941h-15.058824v-45.17647h15.058824v45.17647z m0-75.294117h-15.058824v-45.176471h15.058824v45.176471z m0-75.294118h-15.058824v-45.176471h15.058824v45.176471z m0-75.294118h-15.058824v-45.17647h15.058824v45.17647z m0-75.294117h-15.058824v-45.176471h15.058824v45.176471z m0-75.294118h-15.058824v-45.176471h15.058824v45.176471z m0-75.294118h-15.058824v-45.17647h15.058824v45.17647z m0-75.294117h-15.058824v-45.176471h15.058824v45.176471z m0-75.294118h-15.058824v-45.176471h15.058824v45.176471z m0-75.294118h-15.058824v-45.17647h15.058824v45.17647z m0-75.294117h-15.058824v-45.176471h15.058824v45.176471z m0-75.294118h-15.058824v-45.176471h15.058824v45.176471z m0-75.294118h-15.058824v-45.17647h15.058824v45.17647z" fill="#FF1A1A" p-id="3216"></path><path d="M986.352941 504.470588v15.058824h-45.17647v-15.058824h45.17647z m-75.294117 0v15.058824h-45.176471v-15.058824h45.176471z m-75.294118 0v15.058824h-45.176471v-15.058824h45.176471z m-75.294118 0v15.058824h-45.17647v-15.058824h45.17647z m-75.294117 0v15.058824h-45.176471v-15.058824h45.176471z m-75.294118 0v15.058824h-45.176471v-15.058824h45.176471z m-75.294118 0v15.058824h-45.17647v-15.058824h45.17647z m-75.294117 0v15.058824h-45.176471v-15.058824h45.176471z m-75.294118 0v15.058824h-45.176471v-15.058824h45.176471z m-75.294118 0v15.058824h-45.17647v-15.058824h45.17647z m-75.294117 0v15.058824h-45.176471v-15.058824h45.176471z m-75.294118 0v15.058824h-45.176471v-15.058824h45.176471z m-75.294118 0v15.058824h-45.17647v-15.058824h45.17647z" fill="#FF1A1A" p-id="3217"></path></svg>