<?xml version="1.0" standalone="no"?><!DOCTYPE svg PUBLIC "-//W3C//DTD SVG 1.1//EN" "http://www.w3.org/Graphics/SVG/1.1/DTD/svg11.dtd"><svg t="1535447100651" class="icon" style="" viewBox="0 0 1024 1024" version="1.1" xmlns="http://www.w3.org/2000/svg" p-id="5574" xmlns:xlink="http://www.w3.org/1999/xlink" width="24" height="24"><defs><style type="text/css"></style></defs><path d="M512 0C228.266667 0 0 228.266667 0 512s228.266667 512 512 512 512-228.266667 512-512S795.733333 0 512 0z m168.533333 616.533333c17.066667 17.066667 17.066667 44.8 0 59.733334-17.066667 17.066667-44.8 17.066667-59.733333 0l-104.533333-104.533334-104.533334 104.533334c-17.066667 17.066667-44.8 17.066667-59.733333 0-17.066667-17.066667-17.066667-44.8 0-59.733334l104.533333-104.533333-104.533333-104.533333c-17.066667-17.066667-17.066667-44.8 0-59.733334 17.066667-17.066667 44.8-17.066667 59.733333 0l104.533334 104.533334 104.533333-104.533334c17.066667-17.066667 44.8-17.066667 59.733333 0 17.066667 17.066667 17.066667 44.8 0 59.733334L576 512l104.533333 104.533333z" p-id="5575" fill="#d81e06"></path></svg>